<svg width="980" height="980" viewBox="0 0 980 980" fill="none" xmlns="http://www.w3.org/2000/svg">
<path d="M665.375 245C659.852 245 655.375 240.523 655.375 235V10C655.375 4.47715 659.852 0 665.375 0H712.417C715.071 0 717.616 1.05498 719.492 2.93256L801.268 84.7931C805.174 88.7031 811.512 88.7031 815.418 84.793L897.194 2.93256C899.07 1.05498 901.615 0 904.269 0H951.311C956.834 0 961.311 4.47715 961.311 10V235C961.311 240.523 956.834 245 951.311 245H910.124C904.601 245 900.124 240.523 900.124 235V110.828C900.124 101.917 889.347 97.4563 883.049 103.761L815.418 171.462C811.512 175.372 805.174 175.372 801.268 171.462L733.637 103.761C727.339 97.4563 716.562 101.917 716.562 110.828V235C716.562 240.523 712.085 245 706.562 245H665.375Z" fill="#F40407"/>
<path d="M168.265 653.125C168.265 647.602 163.788 643.125 158.265 643.125H86.484C80.9611 643.125 76.484 647.602 76.484 653.125V755.625C76.484 761.148 72.0068 765.625 66.4839 765.625H24.6347C15.6571 765.625 11.2271 776.538 17.6646 782.796L118.843 881.145C122.808 884.998 129.147 884.904 132.994 880.934L228.312 782.585C234.46 776.241 229.965 765.625 221.131 765.625H178.265C172.742 765.625 168.265 761.148 168.265 755.625V653.125Z" fill="#F40407"/>
<path d="M0 25C0 11.1929 11.1929 0 25 0H587.5C601.307 0 612.5 11.1929 612.5 25V220C612.5 233.807 601.307 245 587.5 245H270C256.193 245 245 256.193 245 270V587.5C245 601.307 233.807 612.5 220 612.5H25C11.1929 612.5 0 601.307 0 587.5V25Z" fill="#F40407"/>
<path d="M980 392.5C980 378.693 968.807 367.5 955 367.5H392.5C378.693 367.5 367.5 378.693 367.5 392.5V955C367.5 968.807 378.693 980 392.5 980H955C968.807 980 980 968.807 980 955V392.5Z" fill="#F40407"/>
<path d="M820 652.099C836.667 661.722 836.667 685.778 820 695.401L619.375 811.232C602.708 820.854 581.875 808.826 581.875 789.581V557.919C581.875 538.674 602.708 526.646 619.375 536.268L820 652.099Z" fill="#D9D9D9"/>
</svg>
